PathFileType	3	(X/Y/Z)	C:\Users\dbak576\Desktop\AnkleMomentFeedback\AB28\AB28_05Apr - Copy\AB28_05Apr_static_01.trc
DataRate	CameraRate	NumFrames	NumMarkers	Units	OrigDataRate	OrigDataStartFrame	OrigNumFrames
200.0	200.0	7	42	mm	200.0	89	141	
Frame#	Time	LASI			RASI			LPSI			RPSI			LTH1			LTH2			LTH3			LTH4			LMFC			LLFC			LTB1			LTB2			LTB3			LTB4			LMMAL			LLMAL			LCAL			LToe			LMT1			LMT5			RTH1			RTH2			RTH3			RTH4			RMFC			RLFC			RTB1			RTB2			RTB3			RTB4			RMMAL			RLMAL			RCAL			RToe			RMT1			RMT5			C7			T10			LACR1			RACR1			CLAV			RBack			
		X1	Y1	Z1	X2	Y2	Z2	X3	Y3	Z3	X4	Y4	Z4	X5	Y5	Z5	X6	Y6	Z6	X7	Y7	Z7	X8	Y8	Z8	X9	Y9	Z9	X10	Y10	Z10	X11	Y11	Z11	X12	Y12	Z12	X13	Y13	Z13	X14	Y14	Z14	X15	Y15	Z15	X16	Y16	Z16	X17	Y17	Z17	X18	Y18	Z18	X19	Y19	Z19	X20	Y20	Z20	X21	Y21	Z21	X22	Y22	Z22	X23	Y23	Z23	X24	Y24	Z24	X25	Y25	Z25	X26	Y26	Z26	X27	Y27	Z27	X28	Y28	Z28	X29	Y29	Z29	X30	Y30	Z30	X31	Y31	Z31	X32	Y32	Z32	X33	Y33	Z33	X34	Y34	Z34	X35	Y35	Z35	X36	Y36	Z36	X37	Y37	Z37	X38	Y38	Z38	X39	Y39	Z39	X40	Y40	Z40	X41	Y41	Z41	X42	Y42	Z42	
89	0.435	342.59329	991.71936	-821.65259	590.20428	1006.0003	-828.21497	425.41412	1033.9819	-648.12909	516.94922	1035.6025	-646.93976	283.55582	799.26886	-792.88391	328.41876	798.00751	-839.47052	303.83975	757.01776	-819.90192	292.98505	707.94794	-801.93512	406.33652	495.8685	-726.01575	290.6427	523.62634	-716.82056	265.50763	398.39154	-663.35809	265.38358	359.15378	-693.93683	276.53723	309.27039	-712.76764	273.31018	400.81921	-724.87799	376.89117	108.59486	-717.80823	292.36514	91.277908	-684.83716	348.37177	47.416931	-620.6416	329.11008	51.602798	-896.41125	362.90131	38.033482	-835.71698	251.80185	38.447685	-801.73059	664.05524	849.5116	-789.88263	677.74518	806.82953	-758.0517	676.80652	775.47803	-722.17188	675.6842	759.34119	-780.91083	545.5119	505.20532	-724.39923	665.39661	518.58368	-710.18469	664.84473	260.90714	-722.74603	675.57318	262.9718	-656.28186	675.52844	224.10332	-687.23999	666.29333	172.93982	-708.08368	586.27869	108.67877	-710.36041	667.75726	97.394547	-671.94659	602.00391	50.624462	-616.37134	663.35956	54.158287	-887.74243	619.3576	42.475632	-828.71643	720.93195	44.913765	-779.13251	458.07938	1506.8478	-687.70764	467.73001	1237.8308	-617.47314	289.04742	1483.4854	-733.3974	634.67877	1461.6718	-747.07355	462.31015	1428.0786	-826.88184	581.19531	1380.5345	-621.14337
90	0.44	342.54276	991.66931	-821.59332	590.16669	1006.0383	-828.27582	425.39542	1034.0133	-648.10541	516.95239	1035.6273	-647.02032	283.57495	799.24268	-792.86792	328.33792	797.98181	-839.4884	303.83585	757.01105	-819.94757	293.02908	707.98242	-801.98438	406.3439	495.88052	-726.00006	290.64026	523.6192	-716.81665	265.50549	398.42679	-663.37012	265.39563	359.1311	-693.92853	276.52921	309.24307	-712.74139	273.39911	400.77264	-724.83984	376.89554	108.58468	-717.80737	292.38287	91.277229	-684.83014	348.37494	47.417027	-620.64105	329.09268	51.620174	-896.40747	362.86099	38.04855	-835.74451	251.80995	38.448662	-801.73047	664.03821	849.48395	-789.86206	677.77112	806.84204	-758.05255	676.86517	775.49127	-722.19019	675.69519	759.33966	-780.9234	545.55243	505.20557	-724.40179	665.38269	518.62048	-710.17633	664.8075	260.94489	-722.7655	675.54987	262.96268	-656.32141	675.53949	224.1264	-687.24475	666.27551	172.96634	-708.11279	586.26477	108.66848	-710.29352	667.75134	97.372093	-671.95251	601.98444	50.636196	-616.36322	663.37463	54.147152	-887.72247	619.43848	42.436993	-828.69409	720.92938	44.933475	-779.11938	458.10852	1506.8416	-687.75708	467.72348	1237.8243	-617.54443	289.06458	1483.4579	-733.41138	634.51929	1461.5397	-747.30023	462.32584	1428.1272	-827.00769	581.19592	1380.5516	-621.22668
91	0.445	342.57788	991.70557	-821.65894	590.16907	1006.0134	-828.27765	425.40781	1033.9965	-648.12573	516.95868	1035.5587	-647.02173	283.54715	799.24597	-792.88397	328.33875	797.9931	-839.55402	303.80917	756.98651	-819.90967	292.9494	708.0105	-801.98035	406.42221	495.89813	-725.95062	290.62985	523.62549	-716.87445	265.50491	398.43704	-663.36353	265.38834	359.12811	-693.92249	276.61713	309.22421	-712.72852	273.37369	400.78079	-724.86371	376.91406	108.60674	-717.82751	292.37003	91.282196	-684.83441	348.37744	47.418476	-620.6413	329.13123	51.607803	-896.42957	362.88428	38.071579	-835.75159	251.82086	38.462414	-801.7453	664.05426	849.49951	-789.90936	677.75415	806.82874	-758.07941	676.84882	775.49872	-722.21442	675.73645	759.34912	-780.90607	545.55463	505.19873	-724.39044	665.38916	518.60229	-710.20288	664.81458	260.97021	-722.76947	675.54254	262.96439	-656.30261	675.54443	224.13452	-687.23706	666.25458	172.92601	-708.05438	586.31226	108.7374	-710.29736	667.73785	97.395172	-671.94873	601.98187	50.617424	-616.32983	663.36627	54.169533	-887.72711	619.46179	42.485813	-828.76642	720.95105	44.929123	-779.11957	458.10605	1506.8446	-687.81036	467.7807	1237.8374	-617.53345	289.06696	1483.4799	-733.43097	634.66467	1461.649	-747.15515	462.34061	1428.0568	-826.97882	581.19287	1380.5477	-621.26056
92	0.45	342.6077	991.73065	-821.71771	590.19366	1006.0127	-828.27527	425.38095	1034.0193	-648.19318	516.91968	1035.5643	-647.07703	283.61847	799.23285	-792.90973	328.36813	797.98187	-839.56134	303.84311	757.0108	-819.94879	292.95743	707.98096	-801.98267	406.41702	495.90616	-725.90643	290.72021	523.60474	-716.79901	265.53366	398.42303	-663.35901	265.40158	359.15109	-693.94373	276.65506	309.2998	-712.79279	273.34503	400.83377	-724.84204	376.91449	108.60793	-717.82758	292.39337	91.25811	-684.80951	348.37747	47.433853	-620.61865	329.15137	51.618557	-896.41797	362.89474	38.06102	-835.73682	251.8011	38.468235	-801.72083	664.08325	849.50616	-789.89777	677.76459	806.84802	-758.07751	676.82477	775.49902	-722.20099	675.73334	759.34656	-780.90576	545.53339	505.2272	-724.41516	665.37817	518.60345	-710.1925	664.81769	260.97021	-722.77136	675.53931	263.00311	-656.31366	675.5127	224.1438	-687.29694	666.27777	172.94588	-708.04187	586.25391	108.72363	-710.24567	667.75842	97.421738	-671.99158	601.96057	50.651241	-616.32245	663.36768	54.178345	-887.71057	619.42139	42.494831	-828.74182	720.98645	44.94685	-779.14923	458.10196	1506.8604	-687.83575	467.70694	1237.861	-617.57928	289.07574	1483.4803	-733.48151	634.69537	1461.6782	-747.19006	462.34311	1428.0513	-827.04388	581.1875	1380.5533	-621.28979
93	0.455	342.55429	991.70605	-821.71289	590.21844	1006.0322	-828.33759	425.4353	1033.9781	-648.25647	516.91992	1035.6178	-647.05902	283.59119	799.2384	-792.85089	328.36874	797.96167	-839.60529	303.87778	756.99854	-819.98547	292.98047	707.99945	-801.97992	406.41696	495.9068	-725.90674	290.65741	523.65118	-716.86566	265.52295	398.42279	-663.3642	265.38757	359.1734	-693.92792	276.64639	309.26202	-712.75226	273.34586	400.83496	-724.85962	376.91449	108.60339	-717.76691	292.39746	91.268219	-684.81311	348.37115	47.412109	-620.61707	329.11133	51.5905	-896.35931	362.92844	38.054569	-835.74664	251.82939	38.47435	-801.72626	664.0658	849.49567	-789.92554	677.7915	806.86328	-758.10944	676.87305	775.50684	-722.26636	675.73755	759.3219	-780.89948	545.55481	505.2843	-724.48499	665.38873	518.59314	-710.20361	664.84833	260.93073	-722.81842	675.48193	262.97537	-656.34668	675.5354	224.12552	-687.24536	666.33215	172.97292	-708.09052	586.30743	108.75018	-710.28601	667.79291	97.418961	-671.98322	602.02118	50.633156	-616.35858	663.35126	54.151844	-887.69836	619.47272	42.499138	-828.71979	720.95062	44.937019	-779.12012	458.12485	1506.86	-687.90186	467.75696	1237.8574	-617.57965	289.0817	1483.4836	-733.56659	634.53699	1461.5709	-747.40381	462.34259	1428.0737	-827.0589	581.18146	1380.5443	-621.32001
94	0.46	342.53922	991.70801	-821.71027	590.21918	1006.0125	-828.33575	425.4166	1034.0187	-648.26855	516.93842	1035.5885	-647.11389	283.55444	799.28394	-792.98413	328.39923	798.00519	-839.62476	303.87088	757.0354	-820.0575	292.91455	708.01074	-802.07025	406.45264	495.86356	-725.85999	290.68484	523.62506	-716.83557	265.50156	398.41382	-663.38141	265.41965	359.18216	-693.94531	276.59561	309.35571	-712.82159	273.36765	400.88062	-724.87048	376.92667	108.62303	-717.85065	292.36981	91.274277	-684.83624	348.39633	47.40884	-620.65332	329.13068	51.662472	-896.41479	362.89917	38.071732	-835.73352	251.84247	38.470497	-801.75031	664.10406	849.49622	-789.9231	677.79126	806.86725	-758.10681	676.88361	775.50519	-722.25781	675.77704	759.34637	-780.93445	545.53662	505.26935	-724.45636	665.38538	518.58667	-710.19397	664.85272	260.9682	-722.78943	675.55725	263.03143	-656.38342	675.5556	224.12694	-687.24902	666.31964	172.97244	-708.07397	586.29358	108.75098	-710.32104	667.7923	97.412407	-671.98553	601.9671	50.612854	-616.3468	663.34796	54.186401	-887.71393	619.44116	42.489132	-828.72437	720.97552	44.933594	-779.14716	458.12125	1506.8668	-687.95264	467.75491	1237.8499	-617.5979	289.06439	1483.478	-733.58844	634.68549	1461.6567	-747.24176	462.39365	1428.0822	-827.09741	581.18109	1380.5748	-621.31433
95	0.465	342.60205	991.73792	-821.78302	590.22217	1005.9978	-828.32465	425.37714	1034.0359	-648.36914	516.92578	1035.5894	-647.13611	283.52466	799.27972	-792.96753	328.39111	797.94507	-839.7525	303.85016	757.01251	-819.9411	292.9512	707.98468	-802.02753	406.43155	495.84326	-725.85187	290.69101	523.6037	-716.81787	265.5451	398.40854	-663.35315	265.38522	359.19672	-693.92908	276.50323	309.29471	-712.75604	273.78949	400.79813	-724.96564	376.92661	108.60352	-717.81042	292.37827	91.285622	-684.81909	348.38269	47.429134	-620.65076	329.14352	51.619015	-896.41443	362.91803	38.079243	-835.71393	251.80569	38.487446	-801.71973	664.0321	849.45801	-789.8927	677.79907	806.82739	-758.11578	676.87976	775.47449	-722.30823	675.7298	759.34406	-780.93817	545.53973	505.27411	-724.45636	665.41766	518.57996	-710.26221	664.85529	260.98047	-722.78418	675.56665	263.00266	-656.36017	675.547	224.11964	-687.26837	666.3288	172.94452	-708.08234	586.26154	108.72066	-710.31641	667.78699	97.416275	-671.98309	602.01373	50.623344	-616.37933	663.34436	54.155067	-887.70844	619.36707	42.520901	-828.7229	720.93481	44.902481	-779.0863	458.09644	1506.8446	-687.99127	467.73514	1237.9	-617.63452	289.06427	1483.4648	-733.63525	634.67377	1461.6693	-747.31036	462.3096	1427.996	-827.02838	581.19226	1380.5621	-621.41882
